<svg width="1280" height="720" viewBox="0 0 1280 720" fill="none" xmlns="http://www.w3.org/2000/svg">
<g clip-path="url(#clip0_154_61)">
<path d="M1228 720V680C1228 640 1228 560 1219.33 480C1210.67 400 1193.33 320 1182.67 240C1172 160 1168 80 1166 40L1164 0H1280V40C1280 80 1280 160 1280 240C1280 320 1280 400 1280 480C1280 560 1280 640 1280 680V720H1228Z" fill="#D3F797"/>
<path d="M1100 720L1093.6 680C1087.07 640 1074.27 560 1063.6 480C1052.93 400 1044.4 320 1050.93 240C1057.33 160 1078.67 80 1089.33 40L1100 0H1165.33L1167.33 40C1169.33 80 1173.33 160 1184 240C1194.67 320 1212 400 1220.67 480C1229.33 560 1229.33 640 1229.33 680V720H1100Z" fill="#CDF689"/>
<path d="M766.667 720L753.733 680C740.933 640 715.067 560 719.333 480C723.6 400 757.733 320 760 240C762.267 160 732.4 80 717.6 40L702.667 0H1101.33L1090.67 40C1080 80 1058.67 160 1052.27 240C1045.73 320 1054.27 400 1064.93 480C1075.6 560 1088.4 640 1094.93 680L1101.33 720H766.667Z" fill="#C7F47B"/>
<path d="M664 720L653.333 680C642.667 640 621.333 560 627.733 480C634.267 400 668.4 320 672.667 240C676.933 160 651.067 80 638.267 40L625.333 0H704L718.933 40C733.733 80 763.6 160 761.333 240C759.067 320 724.933 400 720.667 480C716.4 560 742.267 640 755.067 680L768 720H664Z" fill="#C1F36C"/>
<path d="M549.333 720L538.667 680C528 640 506.667 560 519.333 480C532 400 578.667 320 585.067 240C591.6 160 557.733 80 540.933 40L524 0H626.667L639.6 40C652.4 80 678.267 160 674 240C669.733 320 635.6 400 629.067 480C622.667 560 644 640 654.667 680L665.333 720H549.333Z" fill="#B7EA5F"/>
<path d="M472 720L457.067 680C442.267 640 412.4 560 412.4 480C412.4 400 442.267 320 435.733 240C429.333 160 386.667 80 365.333 40L344 0H525.333L542.267 40C559.067 80 592.933 160 586.4 240C580 320 533.333 400 520.667 480C508 560 529.333 640 540 680L550.667 720H472Z" fill="#A9D956"/>
<path d="M254.667 720L246.267 680C237.733 640 220.933 560 240 480C259.067 400 314.267 320 314.267 240C314.267 160 259.067 80 231.6 40L204 0H345.333L366.667 40C388 80 430.667 160 437.067 240C443.6 320 413.733 400 413.733 480C413.733 560 443.6 640 458.4 680L473.333 720H254.667Z" fill="#9BC84D"/>
<path d="M0 720V680C0 640 0 560 0 480C0 400 0 320 0 240C0 160 0 80 0 40V0H205.333L232.933 40C260.4 80 315.6 160 315.6 240C315.6 320 260.4 400 241.333 480C222.267 560 239.067 640 247.6 680L256 720H0Z" fill="#8DB844"/>
</g>
<defs>
<clipPath id="clip0_154_61">
<rect width="1280" height="720" fill="white"/>
</clipPath>
</defs>
</svg>
