<svg width="383" height="720" viewBox="0 0 383 720" fill="none" xmlns="http://www.w3.org/2000/svg">
<g opacity="0.6">
<path fill-rule="evenodd" clip-rule="evenodd" d="M114.108 112.396L122.248 104.404L254.412 235.532C265.66 218.66 293.632 217.624 306.36 220.88L350.76 232.72C356.976 234.2 384.208 234.2 389.24 232.72L430.68 220.88C485.884 207.412 504.532 265.724 504.68 272.68C505.716 328.476 485.144 358.076 485.144 358.076L529.84 358.52C532.948 358.52 534.28 361.184 534.28 364.44V434C534.28 441.104 524.068 441.104 523.92 434V368.88H481C479.076 373.32 473.6 396.704 473.6 398.48V454.72L625.152 606.272L617.16 614.56L528.36 525.76H464.72C451.992 586.884 406.408 601.092 407 525.76L331.816 525.612C334.332 594.876 290.672 592.804 275.28 525.76C275.28 525.76 208.828 525.76 207.2 525.76C205.572 525.76 204.24 524.576 204.24 522.8V203.12L114.108 112.396ZM272.32 513.92C262.552 496.604 266.696 404.696 266.844 403.068C264.032 377.02 241.98 332.768 235.32 302.28C230.14 279.784 240.944 252.404 247.16 246.04L216.672 215.848V513.476L272.32 513.92ZM332.704 514.068L407 513.92C414.696 467.004 413.956 415.648 371.48 413.28C318.348 416.24 328.116 475.736 332.704 514.068ZM473.6 472.48C473.6 472.48 470.492 503.116 467.68 513.92H515.04L473.6 472.48ZM689.828 205.932H412.92C407.148 205.932 407 194.24 412.92 194.24H683.76L689.828 205.932Z" fill="white"/>
</g>
</svg>
